<mxfile host="Electron" agent="Mozilla/5.0 (Windows NT 10.0; Win64; x64) AppleWebKit/537.36 (KHTML, like Gecko) draw.io/24.7.5 Chrome/126.0.6478.183 Electron/31.3.0 Safari/537.36" version="24.7.5" pages="4">
  <diagram name="INSIDE" id="rahyR6gKSI3f7azLPgEg">
    <mxGraphModel dx="255" dy="274" grid="1" gridSize="10" guides="1" tooltips="1" connect="1" arrows="1" fold="1" page="1" pageScale="1" pageWidth="850" pageHeight="1100" math="0" shadow="0">
      <root>
        <mxCell id="0" />
        <mxCell id="1" parent="0" />
        <mxCell id="PBesBVO6NY3_l0RdZilb-20" value="xcp-ng-lab1" style="rounded=1;whiteSpace=wrap;html=1;labelPosition=center;verticalLabelPosition=bottom;align=center;verticalAlign=top;strokeColor=#3399FF;" vertex="1" parent="1">
          <mxGeometry x="24.840000000000003" y="390" width="310.32" height="270" as="geometry" />
        </mxCell>
        <mxCell id="PBesBVO6NY3_l0RdZilb-1" value="Lab Gateway" style="sketch=0;outlineConnect=0;fontColor=#232F3E;gradientColor=none;strokeColor=#232F3E;fillColor=#ffffff;dashed=0;verticalLabelPosition=top;verticalAlign=bottom;align=center;html=1;fontSize=12;fontStyle=0;aspect=fixed;shape=mxgraph.aws4.resourceIcon;resIcon=mxgraph.aws4.customer_gateway;labelPosition=center;" vertex="1" parent="1">
          <mxGeometry x="150" y="170" width="60" height="60" as="geometry" />
        </mxCell>
        <mxCell id="PBesBVO6NY3_l0RdZilb-34" style="edgeStyle=orthogonalEdgeStyle;rounded=0;orthogonalLoop=1;jettySize=auto;html=1;endArrow=none;endFill=0;" edge="1" parent="1" source="PBesBVO6NY3_l0RdZilb-2" target="PBesBVO6NY3_l0RdZilb-1">
          <mxGeometry relative="1" as="geometry" />
        </mxCell>
        <mxCell id="PBesBVO6NY3_l0RdZilb-2" value="Lab Switch" style="sketch=0;points=[[0.015,0.015,0],[0.985,0.015,0],[0.985,0.985,0],[0.015,0.985,0],[0.25,0,0],[0.5,0,0],[0.75,0,0],[1,0.25,0],[1,0.5,0],[1,0.75,0],[0.75,1,0],[0.5,1,0],[0.25,1,0],[0,0.75,0],[0,0.5,0],[0,0.25,0]];verticalLabelPosition=bottom;html=1;verticalAlign=top;aspect=fixed;align=center;pointerEvents=1;shape=mxgraph.cisco19.rect;prIcon=l2_switch;fillColor=#FAFAFA;strokeColor=#000000;" vertex="1" parent="1">
          <mxGeometry x="155" y="290" width="50" height="50" as="geometry" />
        </mxCell>
        <mxCell id="PBesBVO6NY3_l0RdZilb-3" value="" style="image;aspect=fixed;perimeter=ellipsePerimeter;html=1;align=center;shadow=0;dashed=0;spacingTop=3;image=img/lib/active_directory/internet_cloud.svg;" vertex="1" parent="1">
          <mxGeometry x="100.635" y="40" width="158.73" height="100" as="geometry" />
        </mxCell>
        <mxCell id="PBesBVO6NY3_l0RdZilb-4" value="Lab WiFi" style="html=1;verticalLabelPosition=bottom;align=center;labelBackgroundColor=#ffffff;verticalAlign=top;strokeWidth=2;strokeColor=#000000;shadow=0;dashed=0;shape=mxgraph.ios7.icons.wifi;pointerEvents=1" vertex="1" parent="1">
          <mxGeometry x="250" y="290" width="56.57" height="40" as="geometry" />
        </mxCell>
        <mxCell id="PBesBVO6NY3_l0RdZilb-17" value="PC&lt;br&gt;&amp;nbsp;" style="shape=mxgraph.signs.tech.computer;html=1;pointerEvents=1;fillColor=#000000;strokeColor=none;verticalLabelPosition=middle;verticalAlign=middle;align=center;labelPosition=center;" vertex="1" parent="1">
          <mxGeometry x="72" y="296" width="38" height="38" as="geometry" />
        </mxCell>
        <mxCell id="PBesBVO6NY3_l0RdZilb-28" value="" style="edgeStyle=orthogonalEdgeStyle;rounded=0;orthogonalLoop=1;jettySize=auto;html=1;endArrow=none;endFill=0;" edge="1" parent="1" source="PBesBVO6NY3_l0RdZilb-21">
          <mxGeometry relative="1" as="geometry">
            <mxPoint x="180" y="400" as="targetPoint" />
          </mxGeometry>
        </mxCell>
        <mxCell id="PBesBVO6NY3_l0RdZilb-32" style="edgeStyle=orthogonalEdgeStyle;rounded=0;orthogonalLoop=1;jettySize=auto;html=1;endArrow=none;endFill=0;strokeColor=#009900;" edge="1" parent="1" source="PBesBVO6NY3_l0RdZilb-21">
          <mxGeometry relative="1" as="geometry">
            <mxPoint x="180" y="530" as="targetPoint" />
          </mxGeometry>
        </mxCell>
        <mxCell id="PBesBVO6NY3_l0RdZilb-21" value="VyOS Router&lt;div&gt;192.168.100.254&lt;/div&gt;" style="sketch=0;outlineConnect=0;fontColor=#232F3E;gradientColor=none;strokeColor=#232F3E;fillColor=#ffffff;dashed=0;verticalLabelPosition=middle;verticalAlign=middle;align=left;html=1;fontSize=12;fontStyle=0;aspect=fixed;shape=mxgraph.aws4.resourceIcon;resIcon=mxgraph.aws4.customer_gateway;labelPosition=right;" vertex="1" parent="1">
          <mxGeometry x="150" y="430" width="60" height="60" as="geometry" />
        </mxCell>
        <mxCell id="PBesBVO6NY3_l0RdZilb-22" value="" style="endArrow=none;html=1;rounded=0;" edge="1" parent="1">
          <mxGeometry width="50" height="50" relative="1" as="geometry">
            <mxPoint x="90" y="400" as="sourcePoint" />
            <mxPoint x="270" y="400" as="targetPoint" />
          </mxGeometry>
        </mxCell>
        <mxCell id="PBesBVO6NY3_l0RdZilb-23" value="" style="endArrow=none;html=1;rounded=0;strokeColor=#009900;" edge="1" parent="1">
          <mxGeometry width="50" height="50" relative="1" as="geometry">
            <mxPoint x="90" y="530" as="sourcePoint" />
            <mxPoint x="270" y="530" as="targetPoint" />
          </mxGeometry>
        </mxCell>
        <mxCell id="PBesBVO6NY3_l0RdZilb-33" style="edgeStyle=orthogonalEdgeStyle;rounded=0;orthogonalLoop=1;jettySize=auto;html=1;entryX=0.315;entryY=0.63;entryDx=0;entryDy=0;entryPerimeter=0;endArrow=none;endFill=0;" edge="1" parent="1" source="PBesBVO6NY3_l0RdZilb-2" target="PBesBVO6NY3_l0RdZilb-4">
          <mxGeometry relative="1" as="geometry" />
        </mxCell>
        <mxCell id="PBesBVO6NY3_l0RdZilb-35" style="edgeStyle=orthogonalEdgeStyle;rounded=0;orthogonalLoop=1;jettySize=auto;html=1;entryX=0.994;entryY=0.372;entryDx=0;entryDy=0;entryPerimeter=0;exitX=-0.008;exitY=0.408;exitDx=0;exitDy=0;exitPerimeter=0;endArrow=none;endFill=0;" edge="1" parent="1" source="PBesBVO6NY3_l0RdZilb-2" target="PBesBVO6NY3_l0RdZilb-17">
          <mxGeometry relative="1" as="geometry" />
        </mxCell>
        <mxCell id="PBesBVO6NY3_l0RdZilb-44" value="INSIDE 192.168.100.0/24" style="text;html=1;align=left;verticalAlign=middle;resizable=0;points=[];autosize=1;strokeColor=none;fillColor=none;" vertex="1" parent="1">
          <mxGeometry x="180" y="500" width="160" height="30" as="geometry" />
        </mxCell>
        <mxCell id="PBesBVO6NY3_l0RdZilb-45" value="POOL-WIDE NET" style="text;html=1;align=left;verticalAlign=middle;resizable=0;points=[];autosize=1;strokeColor=none;fillColor=none;" vertex="1" parent="1">
          <mxGeometry x="180" y="400" width="120" height="30" as="geometry" />
        </mxCell>
        <mxCell id="PBesBVO6NY3_l0RdZilb-36" value="" style="verticalLabelPosition=bottom;html=1;verticalAlign=top;align=center;strokeColor=none;fillColor=#3399FF;shape=mxgraph.azure.virtual_machine;" vertex="1" parent="1">
          <mxGeometry x="125" y="540" width="50" height="40" as="geometry" />
        </mxCell>
        <mxCell id="PBesBVO6NY3_l0RdZilb-37" value="" style="verticalLabelPosition=bottom;html=1;verticalAlign=top;align=center;strokeColor=none;fillColor=#3399FF;shape=mxgraph.azure.virtual_machine;" vertex="1" parent="1">
          <mxGeometry x="185" y="540" width="50" height="40" as="geometry" />
        </mxCell>
        <mxCell id="PBesBVO6NY3_l0RdZilb-38" value="" style="sketch=0;aspect=fixed;pointerEvents=1;shadow=0;dashed=0;html=1;strokeColor=none;labelPosition=center;verticalLabelPosition=bottom;verticalAlign=top;align=center;fillColor=#3399FF;shape=mxgraph.mscae.enterprise.domain_controller" vertex="1" parent="1">
          <mxGeometry x="193.045" y="590" width="36" height="50" as="geometry" />
        </mxCell>
        <mxCell id="PBesBVO6NY3_l0RdZilb-40" value="" style="sketch=0;pointerEvents=1;shadow=0;dashed=0;html=1;strokeColor=none;fillColor=#3399FF;labelPosition=center;verticalLabelPosition=bottom;verticalAlign=top;outlineConnect=0;align=center;shape=mxgraph.office.servers.file_server;" vertex="1" parent="1">
          <mxGeometry x="130.95499999999998" y="590" width="40.18" height="50" as="geometry" />
        </mxCell>
        <mxCell id="Bj5gqa0vQiTL9IwiRjMm-1" style="edgeStyle=orthogonalEdgeStyle;rounded=0;orthogonalLoop=1;jettySize=auto;html=1;entryX=-0.005;entryY=-0.017;entryDx=0;entryDy=0;entryPerimeter=0;endArrow=none;endFill=0;" edge="1" parent="1" source="PBesBVO6NY3_l0RdZilb-2" target="PBesBVO6NY3_l0RdZilb-45">
          <mxGeometry relative="1" as="geometry" />
        </mxCell>
      </root>
    </mxGraphModel>
  </diagram>
  <diagram id="8DNDyeSR5kQePPBCIJLw" name="PENTEST">
    <mxGraphModel dx="305" dy="328" grid="1" gridSize="10" guides="1" tooltips="1" connect="1" arrows="1" fold="1" page="1" pageScale="1" pageWidth="850" pageHeight="1100" math="0" shadow="0">
      <root>
        <mxCell id="0" />
        <mxCell id="1" parent="0" />
        <mxCell id="pFudw3-AtNNC4ZPVnzaH-1" value="xcp-ng-lab1" style="rounded=1;whiteSpace=wrap;html=1;labelPosition=center;verticalLabelPosition=bottom;align=center;verticalAlign=top;strokeColor=#3399FF;" vertex="1" parent="1">
          <mxGeometry x="24.840000000000003" y="390" width="310.32" height="270" as="geometry" />
        </mxCell>
        <mxCell id="pFudw3-AtNNC4ZPVnzaH-2" value="Lab Gateway" style="sketch=0;outlineConnect=0;fontColor=#232F3E;gradientColor=none;strokeColor=#232F3E;fillColor=#ffffff;dashed=0;verticalLabelPosition=top;verticalAlign=bottom;align=center;html=1;fontSize=12;fontStyle=0;aspect=fixed;shape=mxgraph.aws4.resourceIcon;resIcon=mxgraph.aws4.customer_gateway;labelPosition=center;" vertex="1" parent="1">
          <mxGeometry x="150" y="170" width="60" height="60" as="geometry" />
        </mxCell>
        <mxCell id="pFudw3-AtNNC4ZPVnzaH-3" style="edgeStyle=orthogonalEdgeStyle;rounded=0;orthogonalLoop=1;jettySize=auto;html=1;endArrow=none;endFill=0;" edge="1" parent="1" source="pFudw3-AtNNC4ZPVnzaH-4" target="pFudw3-AtNNC4ZPVnzaH-2">
          <mxGeometry relative="1" as="geometry" />
        </mxCell>
        <mxCell id="pFudw3-AtNNC4ZPVnzaH-4" value="Lab Switch" style="sketch=0;points=[[0.015,0.015,0],[0.985,0.015,0],[0.985,0.985,0],[0.015,0.985,0],[0.25,0,0],[0.5,0,0],[0.75,0,0],[1,0.25,0],[1,0.5,0],[1,0.75,0],[0.75,1,0],[0.5,1,0],[0.25,1,0],[0,0.75,0],[0,0.5,0],[0,0.25,0]];verticalLabelPosition=bottom;html=1;verticalAlign=top;aspect=fixed;align=center;pointerEvents=1;shape=mxgraph.cisco19.rect;prIcon=l2_switch;fillColor=#FAFAFA;strokeColor=#000000;" vertex="1" parent="1">
          <mxGeometry x="155" y="290" width="50" height="50" as="geometry" />
        </mxCell>
        <mxCell id="pFudw3-AtNNC4ZPVnzaH-5" value="" style="image;aspect=fixed;perimeter=ellipsePerimeter;html=1;align=center;shadow=0;dashed=0;spacingTop=3;image=img/lib/active_directory/internet_cloud.svg;" vertex="1" parent="1">
          <mxGeometry x="100.635" y="40" width="158.73" height="100" as="geometry" />
        </mxCell>
        <mxCell id="pFudw3-AtNNC4ZPVnzaH-6" value="Lab WiFi" style="html=1;verticalLabelPosition=bottom;align=center;labelBackgroundColor=#ffffff;verticalAlign=top;strokeWidth=2;strokeColor=#000000;shadow=0;dashed=0;shape=mxgraph.ios7.icons.wifi;pointerEvents=1" vertex="1" parent="1">
          <mxGeometry x="250" y="290" width="56.57" height="40" as="geometry" />
        </mxCell>
        <mxCell id="pFudw3-AtNNC4ZPVnzaH-7" value="PC&lt;br&gt;&amp;nbsp;" style="shape=mxgraph.signs.tech.computer;html=1;pointerEvents=1;fillColor=#000000;strokeColor=none;verticalLabelPosition=middle;verticalAlign=middle;align=center;labelPosition=center;" vertex="1" parent="1">
          <mxGeometry x="72" y="296" width="38" height="38" as="geometry" />
        </mxCell>
        <mxCell id="pFudw3-AtNNC4ZPVnzaH-8" value="" style="edgeStyle=orthogonalEdgeStyle;rounded=0;orthogonalLoop=1;jettySize=auto;html=1;endArrow=none;endFill=0;" edge="1" parent="1">
          <mxGeometry relative="1" as="geometry">
            <mxPoint x="180" y="400" as="targetPoint" />
            <mxPoint x="180" y="430" as="sourcePoint" />
          </mxGeometry>
        </mxCell>
        <mxCell id="pFudw3-AtNNC4ZPVnzaH-9" style="edgeStyle=orthogonalEdgeStyle;rounded=0;orthogonalLoop=1;jettySize=auto;html=1;endArrow=none;endFill=0;strokeColor=#FF0000;" edge="1" parent="1">
          <mxGeometry relative="1" as="geometry">
            <mxPoint x="180" y="530" as="targetPoint" />
            <mxPoint x="180" y="490" as="sourcePoint" />
          </mxGeometry>
        </mxCell>
        <mxCell id="pFudw3-AtNNC4ZPVnzaH-11" value="" style="endArrow=none;html=1;rounded=0;" edge="1" parent="1">
          <mxGeometry width="50" height="50" relative="1" as="geometry">
            <mxPoint x="90" y="400" as="sourcePoint" />
            <mxPoint x="270" y="400" as="targetPoint" />
          </mxGeometry>
        </mxCell>
        <mxCell id="pFudw3-AtNNC4ZPVnzaH-12" value="" style="endArrow=none;html=1;rounded=0;strokeColor=#FF0000;" edge="1" parent="1">
          <mxGeometry width="50" height="50" relative="1" as="geometry">
            <mxPoint x="90" y="530" as="sourcePoint" />
            <mxPoint x="270" y="530" as="targetPoint" />
          </mxGeometry>
        </mxCell>
        <mxCell id="pFudw3-AtNNC4ZPVnzaH-13" style="edgeStyle=orthogonalEdgeStyle;rounded=0;orthogonalLoop=1;jettySize=auto;html=1;entryX=0.315;entryY=0.63;entryDx=0;entryDy=0;entryPerimeter=0;endArrow=none;endFill=0;" edge="1" parent="1" source="pFudw3-AtNNC4ZPVnzaH-4" target="pFudw3-AtNNC4ZPVnzaH-6">
          <mxGeometry relative="1" as="geometry" />
        </mxCell>
        <mxCell id="pFudw3-AtNNC4ZPVnzaH-14" style="edgeStyle=orthogonalEdgeStyle;rounded=0;orthogonalLoop=1;jettySize=auto;html=1;entryX=0.994;entryY=0.372;entryDx=0;entryDy=0;entryPerimeter=0;exitX=-0.008;exitY=0.408;exitDx=0;exitDy=0;exitPerimeter=0;endArrow=none;endFill=0;" edge="1" parent="1" source="pFudw3-AtNNC4ZPVnzaH-4" target="pFudw3-AtNNC4ZPVnzaH-7">
          <mxGeometry relative="1" as="geometry" />
        </mxCell>
        <mxCell id="pFudw3-AtNNC4ZPVnzaH-21" value="PENTEST 192.168.200.0/24" style="text;html=1;align=left;verticalAlign=middle;resizable=0;points=[];autosize=1;strokeColor=none;fillColor=none;" vertex="1" parent="1">
          <mxGeometry x="180" y="500" width="180" height="30" as="geometry" />
        </mxCell>
        <mxCell id="pFudw3-AtNNC4ZPVnzaH-22" value="POOL-WIDE NET" style="text;html=1;align=left;verticalAlign=middle;resizable=0;points=[];autosize=1;strokeColor=none;fillColor=none;" vertex="1" parent="1">
          <mxGeometry x="180" y="400" width="120" height="30" as="geometry" />
        </mxCell>
        <mxCell id="pFudw3-AtNNC4ZPVnzaH-23" value="OPNsense Firewall&lt;div&gt;192.168.200.254&lt;/div&gt;" style="sketch=0;aspect=fixed;pointerEvents=1;shadow=0;dashed=0;html=1;strokeColor=none;labelPosition=right;verticalLabelPosition=middle;verticalAlign=middle;align=left;fillColor=#3399FF;shape=mxgraph.mscae.enterprise.firewall" vertex="1" parent="1">
          <mxGeometry x="155" y="438" width="50" height="44" as="geometry" />
        </mxCell>
        <mxCell id="pFudw3-AtNNC4ZPVnzaH-25" value="TOR" style="curved=1;endArrow=none;html=1;rounded=0;exitX=0.5;exitY=0;exitDx=0;exitDy=0;exitPerimeter=0;endFill=0;dashed=1;dashPattern=1 2;strokeWidth=2;fillColor=#e1d5e7;strokeColor=#9673a6;" edge="1" parent="1" source="pFudw3-AtNNC4ZPVnzaH-23" target="pFudw3-AtNNC4ZPVnzaH-5">
          <mxGeometry x="0.208" y="-4" width="50" height="50" relative="1" as="geometry">
            <mxPoint x="160" y="390" as="sourcePoint" />
            <mxPoint x="150" y="260" as="targetPoint" />
            <Array as="points">
              <mxPoint x="150" y="380" />
              <mxPoint x="110" y="210" />
            </Array>
            <mxPoint as="offset" />
          </mxGeometry>
        </mxCell>
        <mxCell id="R_4STuvuS0eYwr40nby--1" style="edgeStyle=orthogonalEdgeStyle;rounded=0;orthogonalLoop=1;jettySize=auto;html=1;entryX=0.5;entryY=1;entryDx=0;entryDy=0;entryPerimeter=0;exitX=-0.002;exitY=0.002;exitDx=0;exitDy=0;exitPerimeter=0;endArrow=none;endFill=0;" edge="1" parent="1" source="pFudw3-AtNNC4ZPVnzaH-22" target="pFudw3-AtNNC4ZPVnzaH-4">
          <mxGeometry relative="1" as="geometry" />
        </mxCell>
        <mxCell id="pFudw3-AtNNC4ZPVnzaH-16" value="" style="verticalLabelPosition=bottom;html=1;verticalAlign=top;align=center;strokeColor=none;fillColor=#3399FF;shape=mxgraph.azure.virtual_machine;" vertex="1" parent="1">
          <mxGeometry x="125" y="540" width="50" height="40" as="geometry" />
        </mxCell>
        <mxCell id="pFudw3-AtNNC4ZPVnzaH-17" value="" style="verticalLabelPosition=bottom;html=1;verticalAlign=top;align=center;strokeColor=none;fillColor=#3399FF;shape=mxgraph.azure.virtual_machine;" vertex="1" parent="1">
          <mxGeometry x="185" y="540" width="50" height="40" as="geometry" />
        </mxCell>
        <mxCell id="pFudw3-AtNNC4ZPVnzaH-19" value="" style="sketch=0;aspect=fixed;pointerEvents=1;shadow=0;dashed=0;html=1;strokeColor=none;labelPosition=center;verticalLabelPosition=bottom;verticalAlign=top;align=center;fillColor=#3399FF;shape=mxgraph.mscae.enterprise.domain_controller" vertex="1" parent="1">
          <mxGeometry x="193.045" y="590" width="36" height="50" as="geometry" />
        </mxCell>
        <mxCell id="pFudw3-AtNNC4ZPVnzaH-20" value="" style="sketch=0;pointerEvents=1;shadow=0;dashed=0;html=1;strokeColor=none;fillColor=#3399FF;labelPosition=center;verticalLabelPosition=bottom;verticalAlign=top;outlineConnect=0;align=center;shape=mxgraph.office.servers.file_server;" vertex="1" parent="1">
          <mxGeometry x="130.95499999999998" y="590" width="40.18" height="50" as="geometry" />
        </mxCell>
      </root>
    </mxGraphModel>
  </diagram>
  <diagram id="ElBLnkhZh8q8Risjlj6C" name="CHECK POINT">
    <mxGraphModel dx="2074" dy="1196" grid="1" gridSize="10" guides="1" tooltips="1" connect="1" arrows="1" fold="1" page="1" pageScale="1" pageWidth="850" pageHeight="1100" math="0" shadow="0">
      <root>
        <mxCell id="0" />
        <mxCell id="1" parent="0" />
        <mxCell id="sKuaP1-5mLxK8lGpRRIU-1" value="xcp-ng-lab1" style="rounded=1;whiteSpace=wrap;html=1;labelPosition=center;verticalLabelPosition=bottom;align=center;verticalAlign=top;strokeColor=#3399FF;" vertex="1" parent="1">
          <mxGeometry x="25" y="390" width="725" height="270" as="geometry" />
        </mxCell>
        <mxCell id="sKuaP1-5mLxK8lGpRRIU-2" value="Lab Gateway" style="sketch=0;outlineConnect=0;fontColor=#232F3E;gradientColor=none;strokeColor=#232F3E;fillColor=#ffffff;dashed=0;verticalLabelPosition=top;verticalAlign=bottom;align=center;html=1;fontSize=12;fontStyle=0;aspect=fixed;shape=mxgraph.aws4.resourceIcon;resIcon=mxgraph.aws4.customer_gateway;labelPosition=center;" vertex="1" parent="1">
          <mxGeometry x="150" y="170" width="60" height="60" as="geometry" />
        </mxCell>
        <mxCell id="sKuaP1-5mLxK8lGpRRIU-3" style="edgeStyle=orthogonalEdgeStyle;rounded=0;orthogonalLoop=1;jettySize=auto;html=1;endArrow=none;endFill=0;" edge="1" parent="1" source="sKuaP1-5mLxK8lGpRRIU-4" target="sKuaP1-5mLxK8lGpRRIU-2">
          <mxGeometry relative="1" as="geometry" />
        </mxCell>
        <mxCell id="sKuaP1-5mLxK8lGpRRIU-4" value="Lab Switch" style="sketch=0;points=[[0.015,0.015,0],[0.985,0.015,0],[0.985,0.985,0],[0.015,0.985,0],[0.25,0,0],[0.5,0,0],[0.75,0,0],[1,0.25,0],[1,0.5,0],[1,0.75,0],[0.75,1,0],[0.5,1,0],[0.25,1,0],[0,0.75,0],[0,0.5,0],[0,0.25,0]];verticalLabelPosition=bottom;html=1;verticalAlign=top;aspect=fixed;align=center;pointerEvents=1;shape=mxgraph.cisco19.rect;prIcon=l2_switch;fillColor=#FAFAFA;strokeColor=#000000;" vertex="1" parent="1">
          <mxGeometry x="155" y="290" width="50" height="50" as="geometry" />
        </mxCell>
        <mxCell id="sKuaP1-5mLxK8lGpRRIU-5" value="" style="image;aspect=fixed;perimeter=ellipsePerimeter;html=1;align=center;shadow=0;dashed=0;spacingTop=3;image=img/lib/active_directory/internet_cloud.svg;" vertex="1" parent="1">
          <mxGeometry x="100.635" y="40" width="158.73" height="100" as="geometry" />
        </mxCell>
        <mxCell id="sKuaP1-5mLxK8lGpRRIU-6" value="Lab WiFi" style="html=1;verticalLabelPosition=bottom;align=center;labelBackgroundColor=#ffffff;verticalAlign=top;strokeWidth=2;strokeColor=#000000;shadow=0;dashed=0;shape=mxgraph.ios7.icons.wifi;pointerEvents=1" vertex="1" parent="1">
          <mxGeometry x="250" y="290" width="56.57" height="40" as="geometry" />
        </mxCell>
        <mxCell id="sKuaP1-5mLxK8lGpRRIU-7" value="PC&lt;br&gt;&amp;nbsp;" style="shape=mxgraph.signs.tech.computer;html=1;pointerEvents=1;fillColor=#000000;strokeColor=none;verticalLabelPosition=middle;verticalAlign=middle;align=center;labelPosition=center;" vertex="1" parent="1">
          <mxGeometry x="72" y="296" width="38" height="38" as="geometry" />
        </mxCell>
        <mxCell id="sKuaP1-5mLxK8lGpRRIU-8" value="" style="edgeStyle=orthogonalEdgeStyle;rounded=0;orthogonalLoop=1;jettySize=auto;html=1;endArrow=none;endFill=0;" edge="1" parent="1">
          <mxGeometry relative="1" as="geometry">
            <mxPoint x="180" y="400" as="targetPoint" />
            <mxPoint x="180" y="430" as="sourcePoint" />
          </mxGeometry>
        </mxCell>
        <mxCell id="sKuaP1-5mLxK8lGpRRIU-9" style="edgeStyle=orthogonalEdgeStyle;rounded=0;orthogonalLoop=1;jettySize=auto;html=1;endArrow=none;endFill=0;strokeColor=#009900;" edge="1" parent="1">
          <mxGeometry relative="1" as="geometry">
            <mxPoint x="180" y="530" as="targetPoint" />
            <mxPoint x="180" y="490" as="sourcePoint" />
          </mxGeometry>
        </mxCell>
        <mxCell id="sKuaP1-5mLxK8lGpRRIU-10" value="" style="endArrow=none;html=1;rounded=0;" edge="1" parent="1">
          <mxGeometry width="50" height="50" relative="1" as="geometry">
            <mxPoint x="90" y="400" as="sourcePoint" />
            <mxPoint x="270" y="400" as="targetPoint" />
          </mxGeometry>
        </mxCell>
        <mxCell id="sKuaP1-5mLxK8lGpRRIU-11" value="" style="endArrow=none;html=1;rounded=0;strokeColor=#009900;" edge="1" parent="1">
          <mxGeometry width="50" height="50" relative="1" as="geometry">
            <mxPoint x="90" y="530" as="sourcePoint" />
            <mxPoint x="270" y="530" as="targetPoint" />
          </mxGeometry>
        </mxCell>
        <mxCell id="sKuaP1-5mLxK8lGpRRIU-12" style="edgeStyle=orthogonalEdgeStyle;rounded=0;orthogonalLoop=1;jettySize=auto;html=1;entryX=0.315;entryY=0.63;entryDx=0;entryDy=0;entryPerimeter=0;endArrow=none;endFill=0;" edge="1" parent="1" source="sKuaP1-5mLxK8lGpRRIU-4" target="sKuaP1-5mLxK8lGpRRIU-6">
          <mxGeometry relative="1" as="geometry" />
        </mxCell>
        <mxCell id="sKuaP1-5mLxK8lGpRRIU-13" style="edgeStyle=orthogonalEdgeStyle;rounded=0;orthogonalLoop=1;jettySize=auto;html=1;entryX=0.994;entryY=0.372;entryDx=0;entryDy=0;entryPerimeter=0;exitX=-0.008;exitY=0.408;exitDx=0;exitDy=0;exitPerimeter=0;endArrow=none;endFill=0;" edge="1" parent="1" source="sKuaP1-5mLxK8lGpRRIU-4" target="sKuaP1-5mLxK8lGpRRIU-7">
          <mxGeometry relative="1" as="geometry" />
        </mxCell>
        <mxCell id="sKuaP1-5mLxK8lGpRRIU-14" value="Check Point Inside 10.1.1.0/24" style="text;html=1;align=left;verticalAlign=middle;resizable=0;points=[];autosize=1;strokeColor=none;fillColor=none;" vertex="1" parent="1">
          <mxGeometry x="180" y="500" width="190" height="30" as="geometry" />
        </mxCell>
        <mxCell id="sKuaP1-5mLxK8lGpRRIU-15" value="POOL-WIDE NET" style="text;html=1;align=left;verticalAlign=middle;resizable=0;points=[];autosize=1;strokeColor=none;fillColor=none;" vertex="1" parent="1">
          <mxGeometry x="180" y="400" width="120" height="30" as="geometry" />
        </mxCell>
        <mxCell id="sKuaP1-5mLxK8lGpRRIU-16" value="&lt;div&gt;Check Point Firewall&lt;/div&gt;&lt;div&gt;192.168.200.254&lt;/div&gt;" style="sketch=0;aspect=fixed;pointerEvents=1;shadow=0;dashed=0;html=1;strokeColor=none;labelPosition=left;verticalLabelPosition=middle;verticalAlign=middle;align=right;fillColor=#3399FF;shape=mxgraph.mscae.enterprise.firewall" vertex="1" parent="1">
          <mxGeometry x="155" y="438" width="50" height="44" as="geometry" />
        </mxCell>
        <mxCell id="sKuaP1-5mLxK8lGpRRIU-18" style="edgeStyle=orthogonalEdgeStyle;rounded=0;orthogonalLoop=1;jettySize=auto;html=1;entryX=0.5;entryY=1;entryDx=0;entryDy=0;entryPerimeter=0;exitX=-0.002;exitY=0.002;exitDx=0;exitDy=0;exitPerimeter=0;endArrow=none;endFill=0;" edge="1" parent="1" source="sKuaP1-5mLxK8lGpRRIU-15" target="sKuaP1-5mLxK8lGpRRIU-4">
          <mxGeometry relative="1" as="geometry" />
        </mxCell>
        <mxCell id="sKuaP1-5mLxK8lGpRRIU-19" value="" style="verticalLabelPosition=bottom;html=1;verticalAlign=top;align=center;strokeColor=none;fillColor=#009900;shape=mxgraph.azure.virtual_machine;" vertex="1" parent="1">
          <mxGeometry x="125" y="540" width="50" height="40" as="geometry" />
        </mxCell>
        <mxCell id="sKuaP1-5mLxK8lGpRRIU-20" value="" style="verticalLabelPosition=bottom;html=1;verticalAlign=top;align=center;strokeColor=none;fillColor=#009900;shape=mxgraph.azure.virtual_machine;" vertex="1" parent="1">
          <mxGeometry x="185" y="540" width="50" height="40" as="geometry" />
        </mxCell>
        <mxCell id="sKuaP1-5mLxK8lGpRRIU-21" value="" style="sketch=0;aspect=fixed;pointerEvents=1;shadow=0;dashed=0;html=1;strokeColor=none;labelPosition=center;verticalLabelPosition=bottom;verticalAlign=top;align=center;fillColor=#009900;shape=mxgraph.mscae.enterprise.domain_controller" vertex="1" parent="1">
          <mxGeometry x="193.045" y="590" width="36" height="50" as="geometry" />
        </mxCell>
        <mxCell id="sKuaP1-5mLxK8lGpRRIU-22" value="" style="sketch=0;pointerEvents=1;shadow=0;dashed=0;html=1;strokeColor=none;fillColor=#009900;labelPosition=center;verticalLabelPosition=bottom;verticalAlign=top;outlineConnect=0;align=center;shape=mxgraph.office.servers.file_server;" vertex="1" parent="1">
          <mxGeometry x="130.95499999999998" y="590" width="40.18" height="50" as="geometry" />
        </mxCell>
        <mxCell id="sKuaP1-5mLxK8lGpRRIU-23" value="" style="endArrow=none;html=1;rounded=0;strokeColor=#FF0000;exitX=0.74;exitY=0.25;exitDx=0;exitDy=0;exitPerimeter=0;" edge="1" parent="1" source="sKuaP1-5mLxK8lGpRRIU-16">
          <mxGeometry width="50" height="50" relative="1" as="geometry">
            <mxPoint x="350" y="450" as="sourcePoint" />
            <mxPoint x="530" y="450" as="targetPoint" />
          </mxGeometry>
        </mxCell>
        <mxCell id="sKuaP1-5mLxK8lGpRRIU-24" value="Check Point DMZ 192.168.102.0/24" style="text;html=1;align=left;verticalAlign=middle;resizable=0;points=[];autosize=1;strokeColor=none;fillColor=none;" vertex="1" parent="1">
          <mxGeometry x="340" y="420" width="210" height="30" as="geometry" />
        </mxCell>
        <mxCell id="sKuaP1-5mLxK8lGpRRIU-25" value="" style="endArrow=none;html=1;rounded=0;strokeColor=#0000FF;exitX=0.74;exitY=0.25;exitDx=0;exitDy=0;exitPerimeter=0;" edge="1" parent="1">
          <mxGeometry width="50" height="50" relative="1" as="geometry">
            <mxPoint x="192" y="470" as="sourcePoint" />
            <mxPoint x="530" y="471" as="targetPoint" />
          </mxGeometry>
        </mxCell>
        <mxCell id="sKuaP1-5mLxK8lGpRRIU-26" value="Check Point Mgmt 192.168.103.0/24" style="text;html=1;align=left;verticalAlign=middle;resizable=0;points=[];autosize=1;strokeColor=none;fillColor=none;" vertex="1" parent="1">
          <mxGeometry x="340" y="470" width="220" height="30" as="geometry" />
        </mxCell>
        <mxCell id="sKuaP1-5mLxK8lGpRRIU-27" value="Management&lt;div&gt;Workstation&lt;/div&gt;" style="verticalLabelPosition=bottom;html=1;verticalAlign=top;align=center;strokeColor=none;fillColor=#3399FF;shape=mxgraph.azure.virtual_machine;" vertex="1" parent="1">
          <mxGeometry x="653" y="471" width="50" height="40" as="geometry" />
        </mxCell>
        <mxCell id="sKuaP1-5mLxK8lGpRRIU-28" value="Check Point SMS" style="sketch=0;aspect=fixed;pointerEvents=1;shadow=0;dashed=0;html=1;strokeColor=none;labelPosition=center;verticalLabelPosition=bottom;verticalAlign=top;align=center;fillColor=#3399FF;shape=mxgraph.mscae.enterprise.application_server" vertex="1" parent="1">
          <mxGeometry x="560" y="466" width="43" height="50" as="geometry" />
        </mxCell>
        <mxCell id="sKuaP1-5mLxK8lGpRRIU-29" value="DMZ Web Server" style="sketch=0;aspect=fixed;pointerEvents=1;shadow=0;dashed=0;html=1;strokeColor=none;labelPosition=center;verticalLabelPosition=top;verticalAlign=bottom;align=center;fillColor=#CC0000;shape=mxgraph.mscae.enterprise.web_server" vertex="1" parent="1">
          <mxGeometry x="560" y="408" width="38" height="50" as="geometry" />
        </mxCell>
        <mxCell id="sKuaP1-5mLxK8lGpRRIU-30" value="" style="endArrow=none;html=1;rounded=0;strokeColor=#7F00FF;exitX=0.74;exitY=0.25;exitDx=0;exitDy=0;exitPerimeter=0;" edge="1" parent="1">
          <mxGeometry width="50" height="50" relative="1" as="geometry">
            <mxPoint x="193.05" y="459.5" as="sourcePoint" />
            <mxPoint x="310" y="460" as="targetPoint" />
          </mxGeometry>
        </mxCell>
        <mxCell id="sKuaP1-5mLxK8lGpRRIU-31" value="Check Point Sync 192.168.104.0/24" style="text;html=1;align=left;verticalAlign=middle;resizable=0;points=[];autosize=1;strokeColor=none;fillColor=none;fontSize=10;" vertex="1" parent="1">
          <mxGeometry x="312.57" y="444" width="180" height="30" as="geometry" />
        </mxCell>
      </root>
    </mxGraphModel>
  </diagram>
  <diagram id="9GlFbXe33GGzYEIhonqt" name="FULL LAB CHECKPOINT">
    <mxGraphModel dx="1642" dy="1187" grid="1" gridSize="10" guides="1" tooltips="1" connect="1" arrows="1" fold="1" page="1" pageScale="1" pageWidth="850" pageHeight="1100" math="0" shadow="0">
      <root>
        <mxCell id="0" />
        <mxCell id="1" parent="0" />
        <mxCell id="6ZI3YtTcBxJNhqaKGBJH-1" value="xcp-ng-lab1" style="rounded=1;whiteSpace=wrap;html=1;labelPosition=center;verticalLabelPosition=bottom;align=center;verticalAlign=top;strokeColor=#3399FF;" parent="1" vertex="1">
          <mxGeometry x="-330" y="1010" width="725" height="270" as="geometry" />
        </mxCell>
        <mxCell id="6ZI3YtTcBxJNhqaKGBJH-2" value="Lab Gateway" style="sketch=0;outlineConnect=0;fontColor=#232F3E;gradientColor=none;strokeColor=#232F3E;fillColor=#ffffff;dashed=0;verticalLabelPosition=top;verticalAlign=bottom;align=center;html=1;fontSize=12;fontStyle=0;aspect=fixed;shape=mxgraph.aws4.resourceIcon;resIcon=mxgraph.aws4.customer_gateway;labelPosition=center;" parent="1" vertex="1">
          <mxGeometry x="150" y="170" width="60" height="60" as="geometry" />
        </mxCell>
        <mxCell id="6ZI3YtTcBxJNhqaKGBJH-3" style="edgeStyle=orthogonalEdgeStyle;rounded=0;orthogonalLoop=1;jettySize=auto;html=1;endArrow=none;endFill=0;" parent="1" source="6ZI3YtTcBxJNhqaKGBJH-4" target="6ZI3YtTcBxJNhqaKGBJH-2" edge="1">
          <mxGeometry relative="1" as="geometry" />
        </mxCell>
        <mxCell id="6ZI3YtTcBxJNhqaKGBJH-4" value="Lab Switch" style="sketch=0;points=[[0.015,0.015,0],[0.985,0.015,0],[0.985,0.985,0],[0.015,0.985,0],[0.25,0,0],[0.5,0,0],[0.75,0,0],[1,0.25,0],[1,0.5,0],[1,0.75,0],[0.75,1,0],[0.5,1,0],[0.25,1,0],[0,0.75,0],[0,0.5,0],[0,0.25,0]];verticalLabelPosition=bottom;html=1;verticalAlign=top;aspect=fixed;align=center;pointerEvents=1;shape=mxgraph.cisco19.rect;prIcon=l2_switch;fillColor=#FAFAFA;strokeColor=#000000;" parent="1" vertex="1">
          <mxGeometry x="155" y="290" width="50" height="50" as="geometry" />
        </mxCell>
        <mxCell id="6ZI3YtTcBxJNhqaKGBJH-5" value="" style="image;aspect=fixed;perimeter=ellipsePerimeter;html=1;align=center;shadow=0;dashed=0;spacingTop=3;image=img/lib/active_directory/internet_cloud.svg;" parent="1" vertex="1">
          <mxGeometry x="100.635" y="40" width="158.73" height="100" as="geometry" />
        </mxCell>
        <mxCell id="6ZI3YtTcBxJNhqaKGBJH-6" value="Lab WiFi" style="html=1;verticalLabelPosition=bottom;align=center;labelBackgroundColor=#ffffff;verticalAlign=top;strokeWidth=2;strokeColor=#000000;shadow=0;dashed=0;shape=mxgraph.ios7.icons.wifi;pointerEvents=1" parent="1" vertex="1">
          <mxGeometry x="250" y="290" width="56.57" height="40" as="geometry" />
        </mxCell>
        <mxCell id="6ZI3YtTcBxJNhqaKGBJH-7" value="PC&lt;br&gt;&amp;nbsp;" style="shape=mxgraph.signs.tech.computer;html=1;pointerEvents=1;fillColor=#000000;strokeColor=none;verticalLabelPosition=middle;verticalAlign=middle;align=center;labelPosition=center;" parent="1" vertex="1">
          <mxGeometry x="72" y="296" width="38" height="38" as="geometry" />
        </mxCell>
        <mxCell id="6ZI3YtTcBxJNhqaKGBJH-8" value="" style="edgeStyle=orthogonalEdgeStyle;rounded=0;orthogonalLoop=1;jettySize=auto;html=1;endArrow=none;endFill=0;" parent="1" edge="1">
          <mxGeometry relative="1" as="geometry">
            <mxPoint x="180" y="400" as="targetPoint" />
            <mxPoint x="180" y="430" as="sourcePoint" />
          </mxGeometry>
        </mxCell>
        <mxCell id="6ZI3YtTcBxJNhqaKGBJH-10" value="" style="endArrow=none;html=1;rounded=0;" parent="1" edge="1">
          <mxGeometry width="50" height="50" relative="1" as="geometry">
            <mxPoint x="90" y="400" as="sourcePoint" />
            <mxPoint x="270" y="400" as="targetPoint" />
          </mxGeometry>
        </mxCell>
        <mxCell id="6ZI3YtTcBxJNhqaKGBJH-12" style="edgeStyle=orthogonalEdgeStyle;rounded=0;orthogonalLoop=1;jettySize=auto;html=1;entryX=0.315;entryY=0.63;entryDx=0;entryDy=0;entryPerimeter=0;endArrow=none;endFill=0;" parent="1" source="6ZI3YtTcBxJNhqaKGBJH-4" target="6ZI3YtTcBxJNhqaKGBJH-6" edge="1">
          <mxGeometry relative="1" as="geometry" />
        </mxCell>
        <mxCell id="6ZI3YtTcBxJNhqaKGBJH-13" style="edgeStyle=orthogonalEdgeStyle;rounded=0;orthogonalLoop=1;jettySize=auto;html=1;entryX=0.994;entryY=0.372;entryDx=0;entryDy=0;entryPerimeter=0;exitX=-0.008;exitY=0.408;exitDx=0;exitDy=0;exitPerimeter=0;endArrow=none;endFill=0;" parent="1" source="6ZI3YtTcBxJNhqaKGBJH-4" target="6ZI3YtTcBxJNhqaKGBJH-7" edge="1">
          <mxGeometry relative="1" as="geometry" />
        </mxCell>
        <mxCell id="6ZI3YtTcBxJNhqaKGBJH-15" value="POOL-WIDE NET" style="text;html=1;align=left;verticalAlign=middle;resizable=0;points=[];autosize=1;strokeColor=none;fillColor=none;" parent="1" vertex="1">
          <mxGeometry x="180" y="400" width="120" height="30" as="geometry" />
        </mxCell>
        <mxCell id="6ZI3YtTcBxJNhqaKGBJH-16" value="&lt;div&gt;FW Branch 1&lt;/div&gt;" style="sketch=0;aspect=fixed;pointerEvents=1;shadow=0;dashed=0;html=1;strokeColor=none;labelPosition=center;verticalLabelPosition=top;verticalAlign=bottom;align=center;fillColor=#3399FF;shape=mxgraph.mscae.enterprise.firewall" parent="1" vertex="1">
          <mxGeometry x="380" y="436.5" width="50" height="44" as="geometry" />
        </mxCell>
        <mxCell id="6ZI3YtTcBxJNhqaKGBJH-17" style="edgeStyle=orthogonalEdgeStyle;rounded=0;orthogonalLoop=1;jettySize=auto;html=1;entryX=0.5;entryY=1;entryDx=0;entryDy=0;entryPerimeter=0;exitX=-0.002;exitY=0.002;exitDx=0;exitDy=0;exitPerimeter=0;endArrow=none;endFill=0;" parent="1" source="6ZI3YtTcBxJNhqaKGBJH-15" target="6ZI3YtTcBxJNhqaKGBJH-4" edge="1">
          <mxGeometry relative="1" as="geometry" />
        </mxCell>
        <mxCell id="6ZI3YtTcBxJNhqaKGBJH-19" value="PC .20-.50" style="verticalLabelPosition=top;html=1;verticalAlign=bottom;align=center;strokeColor=none;fillColor=#009900;shape=mxgraph.azure.virtual_machine;labelPosition=center;" parent="1" vertex="1">
          <mxGeometry x="790" y="461" width="50" height="40" as="geometry" />
        </mxCell>
        <mxCell id="6ZI3YtTcBxJNhqaKGBJH-22" value="" style="endArrow=none;html=1;rounded=0;strokeColor=#FF0000;exitX=1;exitY=1;exitDx=0;exitDy=0;exitPerimeter=0;" parent="1" source="6ZI3YtTcBxJNhqaKGBJH-16" edge="1">
          <mxGeometry width="50" height="50" relative="1" as="geometry">
            <mxPoint x="559.5699999999999" y="652" as="sourcePoint" />
            <mxPoint x="850" y="640" as="targetPoint" />
            <Array as="points">
              <mxPoint x="470" y="640" />
            </Array>
          </mxGeometry>
        </mxCell>
        <mxCell id="6ZI3YtTcBxJNhqaKGBJH-24" value="" style="endArrow=none;html=1;rounded=0;strokeColor=#0000FF;exitX=0.74;exitY=0.25;exitDx=0;exitDy=0;exitPerimeter=0;" parent="1" edge="1">
          <mxGeometry width="50" height="50" relative="1" as="geometry">
            <mxPoint x="430" y="450" as="sourcePoint" />
            <mxPoint x="850" y="400" as="targetPoint" />
            <Array as="points">
              <mxPoint x="470" y="400" />
            </Array>
          </mxGeometry>
        </mxCell>
        <mxCell id="6ZI3YtTcBxJNhqaKGBJH-25" value="Branch 1 Mgmt 192.168.41.0/24" style="text;html=1;align=left;verticalAlign=middle;resizable=0;points=[];autosize=1;strokeColor=none;fillColor=none;" parent="1" vertex="1">
          <mxGeometry x="537.5699999999999" y="400" width="190" height="30" as="geometry" />
        </mxCell>
        <mxCell id="6ZI3YtTcBxJNhqaKGBJH-26" value="Management&lt;div&gt;Workstation&lt;/div&gt;&lt;div&gt;192.168.41.100&lt;/div&gt;" style="verticalLabelPosition=top;html=1;verticalAlign=bottom;align=center;strokeColor=none;fillColor=#3399FF;shape=mxgraph.azure.virtual_machine;labelPosition=center;" parent="1" vertex="1">
          <mxGeometry x="622.5699999999999" y="350" width="50" height="40" as="geometry" />
        </mxCell>
        <mxCell id="6ZI3YtTcBxJNhqaKGBJH-27" value="Check Point SMS&lt;div&gt;192.168.41.20&lt;/div&gt;" style="sketch=0;aspect=fixed;pointerEvents=1;shadow=0;dashed=0;html=1;strokeColor=none;labelPosition=center;verticalLabelPosition=top;verticalAlign=bottom;align=center;fillColor=#3399FF;shape=mxgraph.mscae.enterprise.application_server" parent="1" vertex="1">
          <mxGeometry x="530" y="340" width="43" height="50" as="geometry" />
        </mxCell>
        <mxCell id="6ZI3YtTcBxJNhqaKGBJH-29" value="" style="endArrow=none;html=1;rounded=0;strokeColor=#7F00FF;exitX=0.552;exitY=-0.075;exitDx=0;exitDy=0;exitPerimeter=0;" parent="1" edge="1">
          <mxGeometry width="50" height="50" relative="1" as="geometry">
            <mxPoint x="330.9299999999999" y="496.75" as="sourcePoint" />
            <mxPoint x="306.57" y="497" as="targetPoint" />
          </mxGeometry>
        </mxCell>
        <mxCell id="_yFMswRnmewI7p1ndxKk-29" value="&lt;span style=&quot;font-size: 10px; text-align: left; background-color: rgb(251, 251, 251);&quot;&gt;Sync 192.168.51.0/24&lt;/span&gt;&lt;div&gt;&lt;span style=&quot;font-size: 10px; text-align: left; background-color: rgb(251, 251, 251);&quot;&gt;ETH3 VLAN501&lt;/span&gt;&lt;/div&gt;" style="edgeLabel;html=1;align=left;verticalAlign=middle;resizable=0;points=[];labelPosition=right;verticalLabelPosition=middle;" parent="6ZI3YtTcBxJNhqaKGBJH-29" vertex="1" connectable="0">
          <mxGeometry x="-0.5246" y="1" relative="1" as="geometry">
            <mxPoint as="offset" />
          </mxGeometry>
        </mxCell>
        <mxCell id="_yFMswRnmewI7p1ndxKk-1" value="VyOS Router&lt;div&gt;&quot;ISP&quot;&lt;/div&gt;" style="image;aspect=fixed;html=1;points=[];align=right;fontSize=12;image=img/lib/azure2/networking/Virtual_Router.svg;labelPosition=left;verticalLabelPosition=middle;verticalAlign=middle;" parent="1" vertex="1">
          <mxGeometry x="151.5" y="430" width="57" height="57" as="geometry" />
        </mxCell>
        <mxCell id="_yFMswRnmewI7p1ndxKk-10" value="1/2/3" style="text;html=1;align=left;verticalAlign=middle;resizable=0;points=[];autosize=1;strokeColor=none;fillColor=none;" parent="1" vertex="1">
          <mxGeometry x="430" y="450" width="50" height="30" as="geometry" />
        </mxCell>
        <mxCell id="_yFMswRnmewI7p1ndxKk-11" value="192.168.101.254/24" style="text;html=1;align=left;verticalAlign=middle;resizable=0;points=[];autosize=1;strokeColor=none;fillColor=none;" parent="1" vertex="1">
          <mxGeometry x="212.57" y="435" width="130" height="30" as="geometry" />
        </mxCell>
        <mxCell id="_yFMswRnmewI7p1ndxKk-12" value="1/2/3" style="text;html=1;align=right;verticalAlign=middle;resizable=0;points=[];autosize=1;strokeColor=none;fillColor=none;" parent="1" vertex="1">
          <mxGeometry x="321" y="435" width="50" height="30" as="geometry" />
        </mxCell>
        <mxCell id="_yFMswRnmewI7p1ndxKk-13" value="" style="endArrow=none;html=1;rounded=0;" parent="1" source="_yFMswRnmewI7p1ndxKk-1" edge="1">
          <mxGeometry width="50" height="50" relative="1" as="geometry">
            <mxPoint x="205" y="459.65999999999997" as="sourcePoint" />
            <mxPoint x="380" y="459" as="targetPoint" />
          </mxGeometry>
        </mxCell>
        <mxCell id="_yFMswRnmewI7p1ndxKk-14" value="" style="endArrow=none;html=1;rounded=0;strokeColor=#009900;exitX=0.993;exitY=0.691;exitDx=0;exitDy=0;exitPerimeter=0;" parent="1" source="6ZI3YtTcBxJNhqaKGBJH-16" edge="1">
          <mxGeometry width="50" height="50" relative="1" as="geometry">
            <mxPoint x="650" y="555.31" as="sourcePoint" />
            <mxPoint x="850" y="520" as="targetPoint" />
            <Array as="points">
              <mxPoint x="470" y="520" />
            </Array>
          </mxGeometry>
        </mxCell>
        <mxCell id="_yFMswRnmewI7p1ndxKk-15" value="Branch 1 LAN 10.0.1.0/24" style="text;html=1;align=left;verticalAlign=middle;resizable=0;points=[];autosize=1;strokeColor=none;fillColor=none;" parent="1" vertex="1">
          <mxGeometry x="537.5699999999999" y="520" width="160" height="30" as="geometry" />
        </mxCell>
        <mxCell id="_yFMswRnmewI7p1ndxKk-16" value="DC .10" style="sketch=0;aspect=fixed;pointerEvents=1;shadow=0;dashed=0;html=1;strokeColor=none;labelPosition=center;verticalLabelPosition=top;verticalAlign=bottom;align=center;fillColor=#009900;shape=mxgraph.mscae.enterprise.domain_controller" parent="1" vertex="1">
          <mxGeometry x="530" y="461" width="36" height="50" as="geometry" />
        </mxCell>
        <mxCell id="_yFMswRnmewI7p1ndxKk-17" value="FILE .11" style="sketch=0;pointerEvents=1;shadow=0;dashed=0;html=1;strokeColor=none;fillColor=#009900;labelPosition=center;verticalLabelPosition=top;verticalAlign=bottom;outlineConnect=0;align=center;shape=mxgraph.office.servers.file_server;" parent="1" vertex="1">
          <mxGeometry x="589.995" y="461" width="40.18" height="50" as="geometry" />
        </mxCell>
        <mxCell id="_yFMswRnmewI7p1ndxKk-19" value="SQL .12" style="sketch=0;shadow=0;dashed=0;html=1;strokeColor=none;fillColor=#009900;labelPosition=center;verticalLabelPosition=top;verticalAlign=bottom;outlineConnect=0;align=center;shape=mxgraph.office.databases.database_server_blue;" parent="1" vertex="1">
          <mxGeometry x="660" y="461" width="38.47" height="51" as="geometry" />
        </mxCell>
        <mxCell id="_yFMswRnmewI7p1ndxKk-23" value="" style="group" parent="1" vertex="1" connectable="0">
          <mxGeometry x="730" y="461" width="31.529999999999973" height="54" as="geometry" />
        </mxCell>
        <mxCell id="_yFMswRnmewI7p1ndxKk-21" value="PRINT .13" style="sketch=0;pointerEvents=1;shadow=0;dashed=0;html=1;strokeColor=none;fillColor=#009900;labelPosition=center;verticalLabelPosition=top;verticalAlign=bottom;outlineConnect=0;align=center;shape=mxgraph.office.servers.server_generic;" parent="_yFMswRnmewI7p1ndxKk-23" vertex="1">
          <mxGeometry width="24.92" height="48" as="geometry" />
        </mxCell>
        <mxCell id="_yFMswRnmewI7p1ndxKk-22" value="" style="verticalLabelPosition=bottom;sketch=0;aspect=fixed;html=1;verticalAlign=top;strokeColor=none;align=center;outlineConnect=0;shape=mxgraph.citrix.printer;" parent="_yFMswRnmewI7p1ndxKk-23" vertex="1">
          <mxGeometry x="7.529999999999973" y="30" width="24" height="24" as="geometry" />
        </mxCell>
        <mxCell id="_yFMswRnmewI7p1ndxKk-24" value="Branch 1 DMZ 192.168.31.0/24" style="text;html=1;align=left;verticalAlign=middle;resizable=0;points=[];autosize=1;strokeColor=none;fillColor=none;" parent="1" vertex="1">
          <mxGeometry x="537.5699999999999" y="640" width="190" height="30" as="geometry" />
        </mxCell>
        <mxCell id="_yFMswRnmewI7p1ndxKk-25" value="IIS .10" style="sketch=0;aspect=fixed;pointerEvents=1;shadow=0;dashed=0;html=1;strokeColor=none;labelPosition=center;verticalLabelPosition=top;verticalAlign=bottom;align=center;fillColor=#CC6600;shape=mxgraph.mscae.enterprise.web_server" parent="1" vertex="1">
          <mxGeometry x="530" y="580" width="38" height="50" as="geometry" />
        </mxCell>
        <mxCell id="_yFMswRnmewI7p1ndxKk-27" value="Apache .11" style="sketch=0;aspect=fixed;pointerEvents=1;shadow=0;dashed=0;html=1;strokeColor=none;labelPosition=center;verticalLabelPosition=top;verticalAlign=bottom;align=center;fillColor=#CC6600;shape=mxgraph.mscae.enterprise.web_server" parent="1" vertex="1">
          <mxGeometry x="589.995" y="580" width="38" height="50" as="geometry" />
        </mxCell>
        <mxCell id="_yFMswRnmewI7p1ndxKk-32" value="ETH2 VLAN101" style="text;html=1;align=center;verticalAlign=middle;resizable=0;points=[];autosize=1;strokeColor=none;fillColor=none;" parent="1" vertex="1">
          <mxGeometry x="205" y="457" width="110" height="30" as="geometry" />
        </mxCell>
        <mxCell id="_yFMswRnmewI7p1ndxKk-33" value="VLAN401" style="text;html=1;align=center;verticalAlign=middle;resizable=0;points=[];autosize=1;strokeColor=none;fillColor=none;" parent="1" vertex="1">
          <mxGeometry x="740" y="400" width="70" height="30" as="geometry" />
        </mxCell>
        <mxCell id="_yFMswRnmewI7p1ndxKk-34" value="VLAN301" style="text;html=1;align=center;verticalAlign=middle;resizable=0;points=[];autosize=1;strokeColor=none;fillColor=none;" parent="1" vertex="1">
          <mxGeometry x="740" y="640" width="70" height="30" as="geometry" />
        </mxCell>
        <mxCell id="_yFMswRnmewI7p1ndxKk-35" value="VLAN201" style="text;html=1;align=center;verticalAlign=middle;resizable=0;points=[];autosize=1;strokeColor=none;fillColor=none;" parent="1" vertex="1">
          <mxGeometry x="740" y="520" width="70" height="30" as="geometry" />
        </mxCell>
        <mxCell id="_yFMswRnmewI7p1ndxKk-36" value="&lt;div&gt;ETH1 VLAN100&lt;/div&gt;&lt;div&gt;192.168.100.254/24&lt;/div&gt;&lt;div&gt;&quot;BUILD&quot;&lt;/div&gt;" style="text;html=1;align=center;verticalAlign=middle;resizable=0;points=[];autosize=1;strokeColor=none;fillColor=none;" parent="1" vertex="1">
          <mxGeometry x="-10" y="501" width="130" height="60" as="geometry" />
        </mxCell>
        <mxCell id="_yFMswRnmewI7p1ndxKk-37" value="&lt;div&gt;FW Branch 2&lt;/div&gt;" style="sketch=0;aspect=fixed;pointerEvents=1;shadow=0;dashed=0;html=1;strokeColor=none;labelPosition=center;verticalLabelPosition=top;verticalAlign=bottom;align=center;fillColor=#3399FF;shape=mxgraph.mscae.enterprise.firewall" parent="1" vertex="1">
          <mxGeometry x="380" y="746.5" width="50" height="44" as="geometry" />
        </mxCell>
        <mxCell id="_yFMswRnmewI7p1ndxKk-38" value="PC .20-.50" style="verticalLabelPosition=top;html=1;verticalAlign=bottom;align=center;strokeColor=none;fillColor=#009900;shape=mxgraph.azure.virtual_machine;labelPosition=center;" parent="1" vertex="1">
          <mxGeometry x="540" y="730" width="50" height="40" as="geometry" />
        </mxCell>
        <mxCell id="_yFMswRnmewI7p1ndxKk-44" value="" style="endArrow=none;html=1;rounded=0;strokeColor=#7F00FF;exitX=0.552;exitY=-0.075;exitDx=0;exitDy=0;exitPerimeter=0;" parent="1" edge="1">
          <mxGeometry width="50" height="50" relative="1" as="geometry">
            <mxPoint x="330.9299999999999" y="806.75" as="sourcePoint" />
            <mxPoint x="306.57" y="807" as="targetPoint" />
          </mxGeometry>
        </mxCell>
        <mxCell id="_yFMswRnmewI7p1ndxKk-45" value="&lt;span style=&quot;font-size: 10px; text-align: left; background-color: rgb(251, 251, 251);&quot;&gt;Sync 192.168.52.0/24&lt;/span&gt;&lt;div&gt;&lt;span style=&quot;font-size: 10px; text-align: left; background-color: rgb(251, 251, 251);&quot;&gt;ETH2 VLAN502&lt;/span&gt;&lt;/div&gt;" style="edgeLabel;html=1;align=left;verticalAlign=middle;resizable=0;points=[];labelPosition=right;verticalLabelPosition=middle;" parent="_yFMswRnmewI7p1ndxKk-44" vertex="1" connectable="0">
          <mxGeometry x="-0.5246" y="1" relative="1" as="geometry">
            <mxPoint as="offset" />
          </mxGeometry>
        </mxCell>
        <mxCell id="_yFMswRnmewI7p1ndxKk-46" value="1/2/3" style="text;html=1;align=left;verticalAlign=middle;resizable=0;points=[];autosize=1;strokeColor=none;fillColor=none;" parent="1" vertex="1">
          <mxGeometry x="430" y="760" width="50" height="30" as="geometry" />
        </mxCell>
        <mxCell id="_yFMswRnmewI7p1ndxKk-47" value="1/2/3" style="text;html=1;align=right;verticalAlign=middle;resizable=0;points=[];autosize=1;strokeColor=none;fillColor=none;" parent="1" vertex="1">
          <mxGeometry x="321" y="745" width="50" height="30" as="geometry" />
        </mxCell>
        <mxCell id="_yFMswRnmewI7p1ndxKk-48" value="" style="endArrow=none;html=1;rounded=0;strokeColor=#009900;exitX=0.993;exitY=0.691;exitDx=0;exitDy=0;exitPerimeter=0;" parent="1" source="_yFMswRnmewI7p1ndxKk-37" edge="1">
          <mxGeometry width="50" height="50" relative="1" as="geometry">
            <mxPoint x="650" y="865.31" as="sourcePoint" />
            <mxPoint x="850" y="780" as="targetPoint" />
            <Array as="points">
              <mxPoint x="530" y="777" />
            </Array>
          </mxGeometry>
        </mxCell>
        <mxCell id="_yFMswRnmewI7p1ndxKk-49" value="Branch 2 LAN 10.0.2.0/24" style="text;html=1;align=left;verticalAlign=middle;resizable=0;points=[];autosize=1;strokeColor=none;fillColor=none;" parent="1" vertex="1">
          <mxGeometry x="537.5699999999999" y="780" width="160" height="30" as="geometry" />
        </mxCell>
        <mxCell id="_yFMswRnmewI7p1ndxKk-61" value="VLAN202" style="text;html=1;align=center;verticalAlign=middle;resizable=0;points=[];autosize=1;strokeColor=none;fillColor=none;" parent="1" vertex="1">
          <mxGeometry x="740" y="780" width="70" height="30" as="geometry" />
        </mxCell>
        <mxCell id="_yFMswRnmewI7p1ndxKk-62" value="&lt;div&gt;FW Branch 3&lt;/div&gt;" style="sketch=0;aspect=fixed;pointerEvents=1;shadow=0;dashed=0;html=1;strokeColor=none;labelPosition=center;verticalLabelPosition=top;verticalAlign=bottom;align=center;fillColor=#3399FF;shape=mxgraph.mscae.enterprise.firewall" parent="1" vertex="1">
          <mxGeometry x="380" y="886.5" width="50" height="44" as="geometry" />
        </mxCell>
        <mxCell id="_yFMswRnmewI7p1ndxKk-63" value="PC .20-.50" style="verticalLabelPosition=top;html=1;verticalAlign=bottom;align=center;strokeColor=none;fillColor=#009900;shape=mxgraph.azure.virtual_machine;labelPosition=center;" parent="1" vertex="1">
          <mxGeometry x="540" y="870" width="50" height="40" as="geometry" />
        </mxCell>
        <mxCell id="_yFMswRnmewI7p1ndxKk-64" value="" style="endArrow=none;html=1;rounded=0;strokeColor=#7F00FF;exitX=0.552;exitY=-0.075;exitDx=0;exitDy=0;exitPerimeter=0;" parent="1" edge="1">
          <mxGeometry width="50" height="50" relative="1" as="geometry">
            <mxPoint x="330.9299999999999" y="946.75" as="sourcePoint" />
            <mxPoint x="306.57" y="947" as="targetPoint" />
          </mxGeometry>
        </mxCell>
        <mxCell id="_yFMswRnmewI7p1ndxKk-65" value="&lt;span style=&quot;font-size: 10px; text-align: left; background-color: rgb(251, 251, 251);&quot;&gt;Sync 192.168.53.0/24&lt;/span&gt;&lt;div&gt;&lt;span style=&quot;font-size: 10px; text-align: left; background-color: rgb(251, 251, 251);&quot;&gt;ETH2 VLAN503&lt;/span&gt;&lt;/div&gt;" style="edgeLabel;html=1;align=left;verticalAlign=middle;resizable=0;points=[];labelPosition=right;verticalLabelPosition=middle;" parent="_yFMswRnmewI7p1ndxKk-64" vertex="1" connectable="0">
          <mxGeometry x="-0.5246" y="1" relative="1" as="geometry">
            <mxPoint as="offset" />
          </mxGeometry>
        </mxCell>
        <mxCell id="_yFMswRnmewI7p1ndxKk-66" value="1/2/3" style="text;html=1;align=left;verticalAlign=middle;resizable=0;points=[];autosize=1;strokeColor=none;fillColor=none;" parent="1" vertex="1">
          <mxGeometry x="430" y="900" width="50" height="30" as="geometry" />
        </mxCell>
        <mxCell id="_yFMswRnmewI7p1ndxKk-67" value="1/2/3" style="text;html=1;align=right;verticalAlign=middle;resizable=0;points=[];autosize=1;strokeColor=none;fillColor=none;" parent="1" vertex="1">
          <mxGeometry x="321" y="885" width="50" height="30" as="geometry" />
        </mxCell>
        <mxCell id="_yFMswRnmewI7p1ndxKk-68" value="" style="endArrow=none;html=1;rounded=0;strokeColor=#009900;exitX=0.993;exitY=0.691;exitDx=0;exitDy=0;exitPerimeter=0;" parent="1" source="_yFMswRnmewI7p1ndxKk-62" edge="1">
          <mxGeometry width="50" height="50" relative="1" as="geometry">
            <mxPoint x="650" y="1005.31" as="sourcePoint" />
            <mxPoint x="850" y="920" as="targetPoint" />
            <Array as="points">
              <mxPoint x="530" y="917" />
            </Array>
          </mxGeometry>
        </mxCell>
        <mxCell id="_yFMswRnmewI7p1ndxKk-69" value="Branch 3 LAN 10.0.3.0/24" style="text;html=1;align=left;verticalAlign=middle;resizable=0;points=[];autosize=1;strokeColor=none;fillColor=none;" parent="1" vertex="1">
          <mxGeometry x="537.5699999999999" y="920" width="160" height="30" as="geometry" />
        </mxCell>
        <mxCell id="_yFMswRnmewI7p1ndxKk-70" value="VLAN203" style="text;html=1;align=center;verticalAlign=middle;resizable=0;points=[];autosize=1;strokeColor=none;fillColor=none;" parent="1" vertex="1">
          <mxGeometry x="740" y="920" width="70" height="30" as="geometry" />
        </mxCell>
        <mxCell id="_yFMswRnmewI7p1ndxKk-72" value="" style="endArrow=none;html=1;rounded=0;entryX=0;entryY=0.5;entryDx=0;entryDy=0;entryPerimeter=0;exitX=0.693;exitY=1.07;exitDx=0;exitDy=0;exitPerimeter=0;" parent="1" source="_yFMswRnmewI7p1ndxKk-1" target="_yFMswRnmewI7p1ndxKk-37" edge="1">
          <mxGeometry width="50" height="50" relative="1" as="geometry">
            <mxPoint x="219" y="468" as="sourcePoint" />
            <mxPoint x="407" y="466" as="targetPoint" />
            <Array as="points">
              <mxPoint x="280" y="770" />
            </Array>
          </mxGeometry>
        </mxCell>
        <mxCell id="_yFMswRnmewI7p1ndxKk-73" value="" style="endArrow=none;html=1;rounded=0;entryX=0;entryY=0.5;entryDx=0;entryDy=0;entryPerimeter=0;exitX=0.535;exitY=1.035;exitDx=0;exitDy=0;exitPerimeter=0;" parent="1" source="_yFMswRnmewI7p1ndxKk-1" target="_yFMswRnmewI7p1ndxKk-62" edge="1">
          <mxGeometry width="50" height="50" relative="1" as="geometry">
            <mxPoint x="201" y="501" as="sourcePoint" />
            <mxPoint x="390" y="779" as="targetPoint" />
            <Array as="points">
              <mxPoint x="250" y="910" />
            </Array>
          </mxGeometry>
        </mxCell>
        <mxCell id="_yFMswRnmewI7p1ndxKk-74" value="&lt;div&gt;ETH3 VLAN102&lt;/div&gt;&lt;div&gt;192.168.102.254/24&lt;/div&gt;" style="text;html=1;align=center;verticalAlign=middle;resizable=0;points=[];autosize=1;strokeColor=none;fillColor=none;" parent="1" vertex="1">
          <mxGeometry x="213.29000000000002" y="550" width="130" height="40" as="geometry" />
        </mxCell>
        <mxCell id="_yFMswRnmewI7p1ndxKk-75" value="&lt;div&gt;ETH4 VLAN103&lt;/div&gt;&lt;div&gt;192.168.102.254/24&lt;/div&gt;" style="text;html=1;align=center;verticalAlign=middle;resizable=0;points=[];autosize=1;strokeColor=none;fillColor=none;" parent="1" vertex="1">
          <mxGeometry x="241.00000000000003" y="820" width="130" height="40" as="geometry" />
        </mxCell>
        <mxCell id="_yFMswRnmewI7p1ndxKk-76" value="ETH0" style="text;html=1;align=center;verticalAlign=middle;resizable=0;points=[];autosize=1;strokeColor=none;fillColor=none;" parent="1" vertex="1">
          <mxGeometry x="130" y="400" width="50" height="30" as="geometry" />
        </mxCell>
        <mxCell id="_yFMswRnmewI7p1ndxKk-78" value="" style="endArrow=none;html=1;rounded=0;entryX=0.139;entryY=1;entryDx=0;entryDy=0;entryPerimeter=0;" parent="1" target="_yFMswRnmewI7p1ndxKk-1" edge="1">
          <mxGeometry width="50" height="50" relative="1" as="geometry">
            <mxPoint y="560" as="sourcePoint" />
            <mxPoint x="21.5" y="580.4300000000001" as="targetPoint" />
            <Array as="points">
              <mxPoint x="120" y="560" />
            </Array>
          </mxGeometry>
        </mxCell>
        <mxCell id="_yFMswRnmewI7p1ndxKk-79" value="VyOS DHCP Server" style="text;html=1;align=center;verticalAlign=middle;resizable=0;points=[];autosize=1;strokeColor=none;fillColor=none;" parent="1" vertex="1">
          <mxGeometry y="560" width="130" height="30" as="geometry" />
        </mxCell>
        <mxCell id="_yFMswRnmewI7p1ndxKk-80" value="DHCP&lt;div style=&quot;font-size: 8px;&quot;&gt;Server&lt;/div&gt;" style="text;html=1;align=center;verticalAlign=middle;resizable=0;points=[];autosize=1;strokeColor=none;fillColor=none;fontSize=8;spacing=2;" parent="1" vertex="1">
          <mxGeometry x="480" y="471.5" width="50" height="30" as="geometry" />
        </mxCell>
        <mxCell id="_yFMswRnmewI7p1ndxKk-81" value="ETH0" style="text;html=1;align=center;verticalAlign=middle;resizable=0;points=[];autosize=1;strokeColor=none;fillColor=none;" parent="1" vertex="1">
          <mxGeometry x="330" y="457" width="50" height="30" as="geometry" />
        </mxCell>
        <mxCell id="_yFMswRnmewI7p1ndxKk-82" value="ETH4" style="text;html=1;align=center;verticalAlign=middle;resizable=0;points=[];autosize=1;strokeColor=none;fillColor=none;" parent="1" vertex="1">
          <mxGeometry x="470" y="370" width="50" height="30" as="geometry" />
        </mxCell>
        <mxCell id="_yFMswRnmewI7p1ndxKk-83" value="ETH1" style="text;html=1;align=center;verticalAlign=middle;resizable=0;points=[];autosize=1;strokeColor=none;fillColor=none;" parent="1" vertex="1">
          <mxGeometry x="470" y="610" width="50" height="30" as="geometry" />
        </mxCell>
        <mxCell id="_yFMswRnmewI7p1ndxKk-84" value="ETH2" style="text;html=1;align=center;verticalAlign=middle;resizable=0;points=[];autosize=1;strokeColor=none;fillColor=none;" parent="1" vertex="1">
          <mxGeometry x="470" y="490" width="50" height="30" as="geometry" />
        </mxCell>
        <mxCell id="_yFMswRnmewI7p1ndxKk-85" value="ETH0" style="text;html=1;align=center;verticalAlign=middle;resizable=0;points=[];autosize=1;strokeColor=none;fillColor=none;" parent="1" vertex="1">
          <mxGeometry x="330" y="760" width="50" height="30" as="geometry" />
        </mxCell>
        <mxCell id="_yFMswRnmewI7p1ndxKk-86" value="ETH1" style="text;html=1;align=center;verticalAlign=middle;resizable=0;points=[];autosize=1;strokeColor=none;fillColor=none;" parent="1" vertex="1">
          <mxGeometry x="430" y="775" width="50" height="30" as="geometry" />
        </mxCell>
        <mxCell id="_yFMswRnmewI7p1ndxKk-88" value="ETH0" style="text;html=1;align=center;verticalAlign=middle;resizable=0;points=[];autosize=1;strokeColor=none;fillColor=none;" parent="1" vertex="1">
          <mxGeometry x="330" y="910" width="50" height="30" as="geometry" />
        </mxCell>
        <mxCell id="_yFMswRnmewI7p1ndxKk-89" value="ETH1" style="text;html=1;align=center;verticalAlign=middle;resizable=0;points=[];autosize=1;strokeColor=none;fillColor=none;" parent="1" vertex="1">
          <mxGeometry x="430" y="915" width="50" height="30" as="geometry" />
        </mxCell>
      </root>
    </mxGraphModel>
  </diagram>
</mxfile>
